<svg xmlns="http://www.w3.org/2000/svg" xmlns:xlink="http://www.w3.org/1999/xlink" fill="none" version="1.1" width="100" height="100" viewBox="0 0 100 100"><defs><clipPath id="master_svg0_7_067"><rect x="0" y="0" width="100" height="100" rx="0"/></clipPath><linearGradient x1="0.696908175945282" y1="-0.12974359095096588" x2="0.16722898185253143" y2="1.173912525177002" id="master_svg1_7_074"><stop offset="0%" stop-color="#FA816E" stop-opacity="1"/><stop offset="41.472604870796204%" stop-color="#F74A5C" stop-opacity="1"/><stop offset="100%" stop-color="#F51D2C" stop-opacity="1"/></linearGradient><linearGradient x1="0.552905797958374" y1="0.30240023136138916" x2="0.05895623937249184" y2="0.7838221788406372" id="master_svg2_7_055"><stop offset="0%" stop-color="#29CDFF" stop-opacity="1"/><stop offset="36.24463677406311%" stop-color="#148EFF" stop-opacity="1"/><stop offset="100%" stop-color="#0A60FF" stop-opacity="1"/></linearGradient><linearGradient x1="0.5" y1="0" x2="0.3282458186149597" y2="1.168157935142517" id="master_svg3_7_058"><stop offset="0%" stop-color="#4285EB" stop-opacity="1"/><stop offset="100%" stop-color="#2EC7FF" stop-opacity="1"/></linearGradient></defs><g><g clip-path="url(#master_svg0_7_067)"><g><g transform="matrix(0,1,-1,0,128.38507080078125,1.3009490966796875)"><path d="M64.69695085205078,90.04530994873048C66.12391085205078,91.47200994873047,68.43745085205079,91.47200994873047,69.86441085205078,90.04530994873048L79.03076085205078,80.88080994873047C80.62406085205077,79.28780994873047,80.62406085205077,76.71480994873048,79.03096085205078,75.12200994873047L69.78469085205079,65.91039994873047C68.35436085205077,64.48542394873047,66.04007085205077,64.48747894873047,64.61227085205078,65.91498994873047C63.18532085205078,67.34164994873046,63.18532085205078,69.65473994873047,64.61227085205078,71.08139994873046L70.85724085205078,77.32510994873047C71.25383085205078,77.72160994873047,71.25383085205078,78.32340994873047,70.85724085205078,78.71990994873047L64.69695085205078,84.87890994873047C63.26999985205078,86.30560994873046,63.26999985205078,88.61870994873047,64.69695085205078,90.04530994873048Z" fill="url(#master_svg1_7_074)" fill-opacity="1"/></g><g><path d="M45.0711,20.46224C50.3171,17.44349,57.017,19.24901,60.0357,24.49499L87.1807,71.6674C88.8637,74.59219999999999,87.8714,78.3271,84.9587,80.0308C84.9493,80.0363,84.9399,80.0418,84.9305,80.0472C82.0303,81.7228,78.3208,80.72999999999999,76.64529999999999,77.8298L52.2168,35.5469C52.0364,35.234700000000004,51.777,34.9754,51.4646,34.7951C50.4817,34.2279,49.2251,34.5649,48.6578,35.547799999999995L24.1979,77.93379999999999C24.1889,77.9495,24.1797,77.9651,24.1705,77.9808C22.49682,80.8209,18.837609999999998,81.7666,15.997440000000001,80.0929C13.122578,78.39869999999999,12.147752,74.70580000000001,13.811939,71.8135L41.0381,24.49539C42.0029,22.81862,43.3943,21.42711,45.0711,20.46224Z" fill-rule="evenodd" fill="url(#master_svg2_7_055)" fill-opacity="1"/></g><g><path d="M56.654539372558595,29.786590576171875C60.053019372558595,29.786590576171875,62.594119372558595,31.106560576171876,64.2777193725586,33.746500576171876L86.6173193725586,72.63259057617188C88.29951937255859,75.56079057617188,87.3005193725586,79.29789057617188,84.38161937255859,80.99609057617187C84.3733193725586,81.00099057617187,84.3649193725586,81.00579057617188,84.3565193725586,81.01059057617186C81.4481193725586,82.68419057617187,77.73361937255859,81.68309057617188,76.06011937255859,78.77469057617188L55.217689372558596,42.553690576171874L51.644199372558596,36.51258057617188C51.459629372558595,36.200560576171874,51.1957993725586,35.942930576171875,50.879489372558595,35.765820576171876C49.88928937255859,35.21139057617187,48.63712237255859,35.564660576171875,48.08269727255859,36.554860576171876L48.056419372558594,36.60179057617187C50.389969372558596,32.05832057617187,53.256009372558594,29.786590576171875,56.654539372558595,29.786590576171875Z" fill-rule="evenodd" fill="url(#master_svg3_7_058)" fill-opacity="1"/></g></g></g></g></svg>
